<svg width="700" height="800" viewBox="0 0 700 800" fill="none" xmlns="http://www.w3.org/2000/svg">
<g clip-path="url(#clip0_12_2)">
<path d="M508.512 554.316C509.356 558.368 511.591 561.878 514.806 564.198C521.441 568.987 530.234 567.156 534.406 560.116C538.579 553.075 536.573 543.452 529.939 538.662C526.724 536.342 522.915 535.488 519.213 536.259C515.511 537.03 512.359 539.333 510.338 542.744C508.317 546.154 507.668 550.264 508.512 554.316ZM528.858 540.486C531.702 542.539 533.553 545.627 534.246 548.957C534.94 552.287 534.475 555.858 532.688 558.875C529.111 564.91 521.574 566.479 515.887 562.374C513.131 560.385 511.215 557.377 510.492 553.904C509.769 550.431 510.324 546.908 512.057 543.985C513.79 541.061 516.491 539.087 519.664 538.426C522.837 537.766 526.102 538.497 528.858 540.486Z" fill="#FF0000"/>
<path d="M537.415 562.287C537.713 561.783 537.57 561.098 537.095 560.755C536.621 560.412 535.994 560.543 535.696 561.046C533.458 564.822 529.968 567.372 525.869 568.226C521.771 569.079 517.554 568.135 513.995 565.566C506.648 560.262 504.43 549.607 509.048 541.813C509.347 541.309 509.204 540.623 508.729 540.281C508.254 539.938 507.628 540.069 507.329 540.572C504.721 544.973 504.044 550.18 505.055 555.036C506.066 559.891 508.767 564.397 512.914 567.39C516.932 570.29 521.693 571.357 526.321 570.393C530.948 569.429 534.888 566.551 537.415 562.287Z" fill="#FF0000"/>
<path d="M519.69 558.384C519.921 559.494 520.538 560.523 521.486 561.207C522.404 561.871 523.493 562.114 524.551 561.894C525.608 561.674 526.509 561.016 527.086 560.041C528.242 558.092 527.647 555.237 525.809 553.912C523.914 552.543 521.402 553.066 520.21 555.078C519.613 556.084 519.459 557.274 519.69 558.384ZM524.729 555.735C525.648 556.399 525.945 557.826 525.367 558.8C525.078 559.288 524.628 559.617 524.099 559.727C523.571 559.837 523.026 559.715 522.567 559.383C521.619 558.699 521.333 557.325 521.928 556.319C522.525 555.313 523.781 555.052 524.729 555.735Z" fill="#FF0000"/>
<path d="M523.895 544.717C523.448 545.471 523.332 546.364 523.506 547.196C523.679 548.029 524.142 548.801 524.853 549.314C526.274 550.341 528.159 549.948 529.053 548.439C529.948 546.929 529.517 544.867 528.095 543.841C526.673 542.816 524.789 543.208 523.895 544.716L523.895 544.717ZM527.015 545.666C527.488 546.007 527.631 546.696 527.334 547.199C527.035 547.701 526.407 547.832 525.934 547.49C525.46 547.149 525.316 546.462 525.614 545.958C525.913 545.455 526.541 545.324 527.015 545.666Z" fill="#FF0000"/>
<path d="M514.468 545.881C514.641 546.713 515.104 547.486 515.815 547.999C517.237 549.025 519.121 548.633 520.015 547.124C520.909 545.615 520.48 543.552 519.058 542.527C517.636 541.5 515.751 541.893 514.858 543.402C514.41 544.155 514.294 545.048 514.468 545.881ZM517.976 544.351C518.213 544.522 518.368 544.779 518.425 545.057C518.483 545.334 518.444 545.632 518.295 545.883C517.997 546.386 517.369 546.517 516.896 546.175C516.421 545.833 516.278 545.145 516.576 544.642C516.875 544.14 517.502 544.009 517.976 544.351Z" fill="#FF0000"/>
<path d="M538.264 545.322C538.115 545.574 538.076 545.872 538.134 546.149C538.192 546.426 538.346 546.683 538.583 546.854C539.058 547.197 539.685 547.067 539.983 546.563L551.333 527.411C551.632 526.908 551.489 526.222 551.014 525.879C550.539 525.536 549.913 525.667 549.614 526.171L538.264 545.322Z" fill="#FF0000"/>
<path d="M543.744 527.793C543.269 527.45 542.642 527.581 542.344 528.084L535.588 539.484C535.439 539.736 535.4 540.033 535.458 540.311C535.515 540.588 535.67 540.845 535.907 541.016C536.382 541.359 537.008 541.228 537.307 540.725L544.063 529.325C544.361 528.821 544.219 528.136 543.744 527.793Z" fill="#FF0000"/>
<path d="M531.511 533.938C531.362 534.19 531.323 534.487 531.381 534.764C531.438 535.041 531.593 535.299 531.83 535.47C532.305 535.813 532.931 535.682 533.23 535.179L548.093 510.099C548.391 509.595 548.249 508.909 547.774 508.567C547.299 508.224 546.672 508.355 546.374 508.858L531.511 533.938Z" fill="#FF0000"/>
<path d="M534.287 520.968C533.812 520.625 533.186 520.756 532.887 521.259L527.753 529.924C527.604 530.175 527.565 530.473 527.623 530.75C527.68 531.027 527.835 531.284 528.072 531.456C528.547 531.799 529.173 531.668 529.472 531.164L534.606 522.5C534.905 521.996 534.762 521.311 534.287 520.968Z" fill="#FF0000"/>
<path d="M536.271 516.158C536.328 516.435 536.483 516.692 536.72 516.864C537.195 517.207 537.822 517.076 538.12 516.572L541.093 511.557C541.391 511.053 541.248 510.367 540.774 510.025C540.299 509.682 539.672 509.812 539.374 510.316L536.401 515.331C536.252 515.583 536.213 515.881 536.271 516.158Z" fill="#FF0000"/>
<path d="M533.282 514.382C533.58 513.879 533.437 513.193 532.963 512.85C532.488 512.507 531.861 512.638 531.563 513.142L520.213 532.293C520.064 532.545 520.025 532.842 520.083 533.12C520.14 533.397 520.295 533.654 520.532 533.825C521.007 534.168 521.634 534.037 521.932 533.534L533.282 514.382Z" fill="#FF0000"/>
</g>
<defs>
<clipPath id="clip0_12_2">
<rect width="56.4782" height="51.5998" fill="white" transform="translate(548.002 508.188) rotate(78.2364)"/>
</clipPath>
</defs>
</svg>
