<svg width="700" height="800" viewBox="0 0 700 800" fill="none" xmlns="http://www.w3.org/2000/svg">
<g clip-path="url(#clip0_12_2)">
<path d="M586.974 69.4354L589 67.5003C585.478 64.1365 580.796 62.2837 575.815 62.2837C571.323 62.2837 567.074 63.7913 563.7 66.5551C561.881 65.1232 559.635 64.1706 557.176 63.8924C557.86 56.1781 564.647 50.0991 572.896 50.0991V47.3626C563.071 47.3626 554.997 54.66 554.3 63.8789C551.872 64.1328 549.65 65.0475 547.833 66.4294C542.492 60.5139 542.754 51.5459 548.628 45.9352L546.602 44C543.08 47.364 541.141 51.8369 541.141 56.5944C541.141 60.9767 542.788 65.1168 545.8 68.3722C544.381 70.0763 543.434 72.1531 543.149 74.4225C534.92 73.9199 528.385 67.3684 528.385 59.3828H525.52C525.52 68.8717 533.328 76.6506 543.13 77.1657C543.383 79.4129 544.285 81.4761 545.653 83.1827C539.463 88.432 529.954 88.228 524.026 82.5648L522 84.4999C525.522 87.8637 530.204 89.7165 535.185 89.7165C539.829 89.7165 544.214 88.1047 547.641 85.159C549.381 86.5351 551.512 87.4735 553.848 87.7999C553.321 95.6598 546.463 101.901 538.104 101.901V104.638C548.013 104.638 556.141 97.2152 556.716 87.8851C559.119 87.6983 561.333 86.8684 563.169 85.5731C568.508 91.4886 568.246 100.455 562.373 106.065L564.398 108C567.92 104.636 569.859 100.163 569.859 95.4056C569.859 91.0572 568.238 86.947 565.27 83.7034C566.79 82.0093 567.828 79.911 568.177 77.6014C576.252 78.2552 582.615 84.7378 582.615 92.6173H585.48C585.48 83.2555 577.879 75.5574 568.262 74.8583C568.056 72.49 567.132 70.3147 565.696 68.5312C571.89 63.5782 581.156 63.8772 586.974 69.4354ZM555.683 85.192C550.3 85.192 545.92 81.0087 545.92 75.8668C545.92 70.725 550.3 66.5416 555.683 66.5416C561.066 66.5416 565.445 70.725 565.445 75.8668C565.445 81.0087 561.066 85.192 555.683 85.192Z" fill="#9E00FF"/>
</g>
<defs>
<clipPath id="clip0_12_2">
<rect width="67" height="64" fill="white" transform="translate(522 44)"/>
</clipPath>
</defs>
</svg>
