<svg width="700" height="800" viewBox="0 0 700 800" fill="none" xmlns="http://www.w3.org/2000/svg">
<g clip-path="url(#clip0_12_2)">
<path d="M188.996 225.191C191.561 225.191 193.973 224.021 195.787 221.896C199.531 217.51 199.531 210.374 195.787 205.987C192.042 201.601 185.95 201.602 182.206 205.987C180.392 208.112 179.393 210.937 179.393 213.942C179.393 216.946 180.392 219.771 182.206 221.896C184.02 224.02 186.431 225.191 188.996 225.191ZM183.176 207.124C184.781 205.244 186.888 204.304 188.996 204.304C191.104 204.304 193.212 205.244 194.817 207.124C198.026 210.883 198.026 217 194.817 220.76C193.262 222.581 191.195 223.584 188.996 223.584C186.798 223.584 184.731 222.581 183.176 220.76C181.622 218.938 180.765 216.517 180.765 213.942C180.765 211.366 181.622 208.945 183.176 207.124Z" fill="#FF7A00"/>
<path d="M197.484 203.999C197.216 203.685 196.782 203.685 196.514 203.999C196.246 204.313 196.246 204.822 196.514 205.135C198.522 207.488 199.628 210.615 199.628 213.942C199.628 217.269 198.522 220.396 196.514 222.748C192.368 227.604 185.624 227.604 181.478 222.748C181.211 222.435 180.776 222.435 180.509 222.748C180.241 223.062 180.241 223.571 180.509 223.885C182.849 226.626 185.922 227.997 188.996 227.997C192.07 227.997 195.144 226.626 197.484 223.885C199.752 221.229 201 217.698 201 213.942C201 210.186 199.751 206.655 197.484 203.999Z" fill="#FF7A00"/>
<path d="M192.876 217.155C193.579 217.155 194.281 216.842 194.816 216.215C195.335 215.608 195.62 214.801 195.62 213.942C195.62 213.084 195.335 212.277 194.816 211.67C193.78 210.455 191.973 210.455 190.936 211.67C189.867 212.923 189.867 214.962 190.936 216.215C191.471 216.842 192.174 217.155 192.876 217.155ZM191.906 212.806C192.425 212.199 193.328 212.199 193.846 212.806C194.106 213.11 194.248 213.513 194.248 213.942C194.248 214.371 194.106 214.775 193.846 215.079C193.311 215.705 192.441 215.705 191.906 215.079C191.372 214.452 191.372 213.433 191.906 212.806Z" fill="#FF7A00"/>
<path d="M185.116 211.67C185.517 212.14 186.044 212.374 186.571 212.374C187.098 212.374 187.625 212.139 188.026 211.67C188.829 210.73 188.829 209.2 188.026 208.261C187.223 207.32 185.917 207.321 185.116 208.261C184.314 209.201 184.314 210.73 185.116 211.67L185.116 211.67ZM186.086 209.397C186.353 209.084 186.789 209.084 187.056 209.397C187.323 209.71 187.323 210.22 187.056 210.533C186.789 210.846 186.354 210.847 186.086 210.533C185.819 210.22 185.819 209.71 186.086 209.397Z" fill="#FF7A00"/>
<path d="M184.631 219.192C185.158 219.192 185.685 218.957 186.087 218.487C186.888 217.547 186.888 216.018 186.086 215.077C185.284 214.138 183.978 214.138 183.176 215.078C182.374 216.017 182.374 217.547 183.176 218.487C183.577 218.957 184.104 219.192 184.631 219.192ZM184.146 216.214C184.28 216.058 184.456 215.979 184.631 215.979C184.807 215.979 184.982 216.058 185.116 216.214C185.384 216.528 185.384 217.038 185.116 217.351C184.849 217.664 184.413 217.664 184.146 217.351C183.879 217.037 183.879 216.528 184.146 216.214Z" fill="#FF7A00"/>
<path d="M187.299 200.59C187.433 200.747 187.608 200.825 187.784 200.825C187.959 200.825 188.135 200.747 188.269 200.59C188.537 200.276 188.537 199.768 188.269 199.454L178.083 187.523C177.816 187.209 177.381 187.209 177.114 187.523C176.846 187.836 176.846 188.345 177.114 188.659L187.299 200.59Z" fill="#FF7A00"/>
<path d="M177.356 193.488C177.088 193.802 177.088 194.31 177.356 194.624L183.419 201.726C183.553 201.883 183.728 201.961 183.904 201.961C184.079 201.961 184.255 201.883 184.389 201.726C184.656 201.412 184.656 200.904 184.389 200.59L178.326 193.488C178.058 193.174 177.624 193.174 177.356 193.488Z" fill="#FF7A00"/>
<path d="M179.539 203.999C179.673 204.156 179.848 204.235 180.024 204.235C180.199 204.235 180.375 204.156 180.509 203.999C180.776 203.686 180.776 203.177 180.509 202.863L167.171 187.239C166.903 186.925 166.469 186.925 166.201 187.239C165.933 187.553 165.933 188.061 166.201 188.375L179.539 203.999Z" fill="#FF7A00"/>
<path d="M172.021 199.739C171.753 200.053 171.753 200.561 172.021 200.875L176.628 206.272C176.762 206.429 176.938 206.508 177.113 206.508C177.289 206.508 177.464 206.429 177.598 206.272C177.866 205.958 177.866 205.45 177.598 205.136L172.991 199.739C172.723 199.425 172.289 199.425 172.021 199.739Z" fill="#FF7A00"/>
<path d="M169.353 197.416C169.529 197.416 169.704 197.338 169.838 197.181C170.106 196.868 170.106 196.359 169.838 196.045L167.171 192.92C166.903 192.606 166.469 192.606 166.201 192.92C165.933 193.234 165.933 193.742 166.201 194.056L168.868 197.181C169.002 197.338 169.178 197.416 169.353 197.416Z" fill="#FF7A00"/>
<path d="M167.898 199.454C167.63 199.14 167.196 199.14 166.928 199.454C166.66 199.768 166.66 200.276 166.928 200.59L177.113 212.521C177.247 212.678 177.423 212.757 177.598 212.757C177.774 212.757 177.949 212.678 178.083 212.521C178.351 212.207 178.351 211.699 178.083 211.385L167.898 199.454Z" fill="#FF7A00"/>
</g>
<defs>
<clipPath id="clip0_12_2">
<rect width="35" height="41" fill="white" transform="translate(166 187)"/>
</clipPath>
</defs>
</svg>
