<svg width="700" height="800" viewBox="0 0 700 800" fill="none" xmlns="http://www.w3.org/2000/svg">
<g clip-path="url(#clip0_12_2)">
<path d="M312.069 673.033C311.906 672.958 311.711 672.985 311.566 673.102L307.712 676.202L303.118 674.886C302.945 674.837 302.755 674.891 302.627 675.027C302.499 675.163 302.456 675.356 302.516 675.526L304.107 680.032L301.246 684.066C301.138 684.218 301.123 684.415 301.207 684.573C301.291 684.731 301.46 684.824 301.642 684.812L306.479 684.497L309.304 688.305C309.411 688.449 309.592 688.516 309.771 688.478C309.951 688.44 310.098 688.303 310.151 688.126L311.549 683.425L316.157 681.745C316.233 681.718 316.299 681.673 316.353 681.616C316.353 681.616 316.353 681.616 316.354 681.615C316.354 681.615 316.354 681.615 316.354 681.615C316.539 681.418 316.537 681.115 316.348 680.937C316.319 680.91 316.288 680.888 316.255 680.87L312.312 678.299L312.334 673.452C312.335 673.27 312.233 673.107 312.069 673.033ZM311.353 678.589C311.353 678.747 311.429 678.892 311.559 678.976L314.941 681.181L311.018 682.612C310.868 682.667 310.751 682.791 310.705 682.944L309.515 686.947L307.109 683.704C307.017 683.58 306.868 683.512 306.71 683.522L302.592 683.791L305.028 680.355C305.122 680.224 305.146 680.058 305.095 679.911L303.74 676.074L307.651 677.195C307.801 677.237 307.966 677.203 308.091 677.102L311.372 674.462L311.353 678.589Z" fill="#FFF503"/>
</g>
<defs>
<clipPath id="clip0_12_2">
<rect width="15.8966" height="15.2096" fill="white" transform="translate(296.925 680.575) rotate(-46.7333)"/>
</clipPath>
</defs>
</svg>
