<svg width="700" height="800" viewBox="0 0 700 800" fill="none" xmlns="http://www.w3.org/2000/svg">
<g clip-path="url(#clip0_12_2)">
<path d="M62.468 679.2C62.1445 679.04 61.7695 679.071 61.5007 679.281L54.3656 684.839L45.3349 681.827C44.9946 681.714 44.6315 681.799 44.3984 682.047C44.1651 682.295 44.1022 682.662 44.236 682.995L47.7878 691.827L42.6711 699.285C42.4783 699.566 42.4698 699.943 42.649 700.256C42.8284 700.569 43.1644 700.765 43.516 700.761L52.8459 700.661L58.7141 708.281C58.9353 708.568 59.2931 708.716 59.637 708.661C59.9811 708.607 60.2518 708.361 60.3352 708.026L62.5498 699.132L71.2933 696.384C71.4364 696.339 71.5606 696.259 71.6581 696.156C71.6587 696.155 71.6593 696.155 71.6598 696.154C71.6598 696.154 71.6598 696.154 71.6599 696.154C71.9983 695.794 71.9617 695.21 71.5782 694.849C71.5199 694.794 71.457 694.748 71.3911 694.71L63.4893 689.353L63.0248 680.035C63.0074 679.684 62.7915 679.36 62.468 679.2ZM61.6636 689.811C61.6787 690.115 61.8427 690.401 62.1021 690.577L68.8806 695.172L61.4358 697.512C61.1509 697.601 60.9377 697.828 60.8656 698.118L58.9799 705.69L53.9834 699.202C53.7923 698.954 53.4965 698.808 53.1925 698.811L45.2482 698.896L49.6051 692.545C49.7718 692.302 49.8023 691.985 49.6865 691.697L46.6624 684.177L54.3516 686.741C54.6457 686.839 54.9604 686.79 55.1928 686.609L61.2683 681.876L61.6636 689.811Z" fill="#00F0FF"/>
</g>
<defs>
<clipPath id="clip0_12_2">
<rect width="29.0037" height="30.9415" fill="white" transform="translate(33.9413 692.12) rotate(-46.7333)"/>
</clipPath>
</defs>
</svg>
