<svg width="700" height="800" viewBox="0 0 700 800" fill="none" xmlns="http://www.w3.org/2000/svg">
<g clip-path="url(#clip0_12_2)">
<path d="M628.218 274.123C628.011 274.029 627.762 274.063 627.577 274.212L622.667 278.166L616.824 276.502C616.604 276.439 616.361 276.509 616.199 276.682C616.036 276.856 615.98 277.102 616.056 277.318L618.071 283.049L614.421 288.19C614.283 288.384 614.264 288.634 614.37 288.835C614.477 289.036 614.691 289.154 614.923 289.139L621.079 288.726L624.665 293.567C624.801 293.75 625.031 293.834 625.26 293.786C625.489 293.737 625.676 293.563 625.744 293.338L627.533 287.352L633.4 285.203C633.496 285.168 633.581 285.111 633.649 285.038C633.65 285.038 633.65 285.038 633.651 285.037C633.651 285.037 633.651 285.037 633.651 285.037C633.887 284.786 633.885 284.399 633.645 284.174C633.609 284.14 633.569 284.111 633.527 284.088L628.515 280.825L628.554 274.656C628.556 274.424 628.426 274.217 628.218 274.123ZM627.295 281.197C627.293 281.398 627.391 281.582 627.555 281.689L631.854 284.488L626.859 286.317C626.668 286.387 626.519 286.546 626.461 286.741L624.937 291.838L621.883 287.716C621.766 287.558 621.576 287.472 621.376 287.485L616.134 287.836L619.242 283.459C619.361 283.291 619.393 283.08 619.328 282.893L617.612 278.013L622.587 279.43C622.778 279.484 622.987 279.44 623.147 279.311L627.328 275.944L627.295 281.197Z" fill="#FFE600"/>
</g>
<defs>
<clipPath id="clip0_12_2">
<rect width="20.2656" height="19.3219" fill="white" transform="translate(608.93 283.757) rotate(-46.7333)"/>
</clipPath>
</defs>
</svg>
