<svg width="700" height="800" viewBox="0 0 700 800" fill="none" xmlns="http://www.w3.org/2000/svg">
<g clip-path="url(#clip0_12_2)">
<path d="M231.709 469.516C231.433 469.386 231.107 469.423 230.868 469.613L224.529 474.649L216.787 472.282C216.495 472.193 216.178 472.277 215.969 472.499C215.76 472.721 215.695 473.043 215.801 473.329L218.632 480.913L213.989 487.546C213.814 487.796 213.796 488.124 213.942 488.391C214.089 488.659 214.375 488.82 214.68 488.806L222.768 488.458L227.641 494.923C227.824 495.167 228.13 495.285 228.43 495.229C228.73 495.172 228.971 494.95 229.053 494.656L231.221 486.856L238.876 484.219C239.001 484.176 239.111 484.104 239.199 484.011C239.199 484.01 239.2 484.01 239.2 484.009C239.2 484.009 239.2 484.009 239.2 484.009C239.504 483.687 239.488 483.18 239.166 482.876C239.117 482.83 239.064 482.792 239.008 482.76L232.31 478.321L232.168 470.226C232.163 469.922 231.985 469.646 231.709 469.516ZM230.714 478.771C230.719 479.034 230.853 479.279 231.073 479.425L236.819 483.233L230.301 485.477C230.052 485.563 229.861 485.766 229.79 486.02L227.944 492.662L223.795 487.157C223.636 486.946 223.384 486.827 223.121 486.838L216.233 487.135L220.187 481.487C220.338 481.271 220.374 480.995 220.281 480.748L217.871 474.289L224.463 476.305C224.716 476.382 224.99 476.33 225.196 476.166L230.594 471.878L230.714 478.771Z" fill="#FF0000"/>
</g>
<defs>
<clipPath id="clip0_12_2">
<rect width="26" height="26" fill="white" transform="translate(206.624 481.556) rotate(-46.7333)"/>
</clipPath>
</defs>
</svg>
