<svg width="700" height="800" viewBox="0 0 700 800" fill="none" xmlns="http://www.w3.org/2000/svg">
<g clip-path="url(#clip0_12_2)">
<g clip-path="url(#clip1_12_2)">
<path d="M653.128 348.762L653.128 348.76C653.12 348.754 653.101 348.739 653.077 348.721C645.208 342.404 635.934 337.78 625.7 335.194C606.663 330.384 586.59 333.192 569.179 343.103C551.769 353.014 539.107 368.84 533.523 387.666C527.94 406.492 530.105 426.065 539.619 442.778C549.133 459.492 564.858 471.346 583.896 476.156C602.935 480.967 623.007 478.158 640.417 468.248C657.827 458.337 670.49 442.511 676.074 423.685C681.657 404.858 679.492 385.286 669.978 368.572C665.589 360.862 659.875 354.189 653.128 348.762ZM571.406 347.014C576.86 343.909 582.595 341.552 588.477 339.952C580.267 348.151 572.567 351.64 567.207 353.112C564.815 353.769 562.697 354.084 560.949 354.217C564.186 351.55 567.678 349.136 571.406 347.014ZM555.974 358.719C558.091 358.936 562.394 359.062 567.987 357.575C571.031 356.766 574.74 355.39 578.834 353.059C584.146 350.035 590.107 345.398 596.107 338.317C605.472 336.841 615.065 337.242 624.395 339.6C628.916 340.742 633.238 342.311 637.317 344.267C625.276 344.143 611.932 349.63 597.631 360.591C580.326 373.854 564.711 379.184 554.659 381.32C548.134 382.707 543.046 382.965 539.998 382.947C543.595 373.831 549.032 365.613 555.974 358.719ZM537.978 388.791C538.109 388.349 538.248 387.909 538.387 387.47C541.444 387.58 547.332 387.47 555.229 385.817C574.436 381.795 590.4 371.806 600.411 364.133C609.793 356.942 623.875 348.45 637.685 348.823C644.112 348.997 648.561 351.144 650.062 352.282C654.5 355.844 658.458 359.983 661.849 364.628C660.585 367.35 657.428 372.144 651.52 377.016C636.616 389.304 614.225 394.537 598.065 396.762C584.42 398.642 572.96 402.335 564.006 407.75C556.724 412.151 551.072 417.684 547.205 424.196C544.29 429.105 542.842 433.803 542.137 437.561C534.554 422.553 533.063 405.364 537.978 388.791ZM638.191 464.337C633.774 466.851 629.173 468.874 624.459 470.403C625.56 468.61 627.123 466.461 629.305 464.193C637.157 456.027 647.924 451.487 657.061 448.97C651.769 455.021 645.418 460.223 638.191 464.337ZM671.619 422.559C669.406 430.021 666.003 436.977 661.582 443.227C650.825 445.509 636.042 450.507 625.73 461.398C621.607 465.752 619.46 469.728 618.434 472.074C607.527 474.593 596.182 474.526 585.202 471.752C582.427 471.05 579.727 470.189 577.112 469.176C581.394 463.272 597.387 444.421 629.095 440.812C639.65 439.61 648.021 436.547 654.586 432.81C661.085 429.11 665.814 424.75 669.133 420.883C670.794 418.948 672.19 417.045 673.36 415.255C672.915 417.697 672.338 420.135 671.619 422.559ZM674.251 403.177C674.232 403.248 672.205 410.363 665.624 418.029C656.744 428.373 644.327 434.519 628.72 436.296C607.911 438.664 593.609 447.316 585.276 454.156C578.526 459.697 574.524 464.915 572.843 467.349C561.977 462.258 552.806 454.416 546.152 444.44C546.092 442.059 546.346 434.547 551.197 426.378C554.656 420.553 559.751 415.58 566.342 411.597C574.728 406.529 585.564 403.053 598.553 401.264C612.071 399.403 624.042 396.36 634.131 392.222C642.283 388.878 649.246 384.809 654.824 380.129C659.941 375.836 662.971 371.796 664.709 368.885C665.117 369.547 665.518 370.213 665.904 370.892C671.586 380.873 674.467 391.943 674.461 403.226L674.251 403.177Z" fill="#FF7A00"/>
</g>
</g>
<defs>
<clipPath id="clip0_12_2">
<rect width="700" height="800" fill="white"/>
</clipPath>
<clipPath id="clip1_12_2">
<rect width="150" height="144" fill="white" transform="translate(504 380.206) rotate(-29.6505)"/>
</clipPath>
</defs>
</svg>
