<svg width="700" height="800" viewBox="0 0 700 800" fill="none" xmlns="http://www.w3.org/2000/svg">
<g clip-path="url(#clip0_12_2)">
<path d="M114.974 242.971C115.006 242.905 115.038 242.839 115.069 242.773C115.158 242.587 115.245 242.4 115.331 242.212C115.357 242.155 115.383 242.099 115.408 242.042C115.633 241.54 115.845 241.033 116.044 240.523C116.05 240.507 116.056 240.491 116.062 240.475C118.147 235.094 118.766 229.265 117.846 223.422C117.834 223.345 117.816 223.271 117.796 223.196C116.025 212.462 109.138 202.484 98.4101 196.944C80.8473 187.874 59.5419 194.083 50.9171 210.784C50.7935 211.023 50.6737 211.264 50.5564 211.506C50.5058 211.61 50.4574 211.715 50.4078 211.82C50.3459 211.951 50.2839 212.082 50.2236 212.214C50.1585 212.357 50.0954 212.5 50.0325 212.643C49.9949 212.729 49.9576 212.814 49.9209 212.9C49.8445 213.078 49.7703 213.256 49.6975 213.434C49.6836 213.469 49.67 213.503 49.6562 213.537C48.2586 216.995 47.4974 220.591 47.3265 224.192C47.3241 224.241 47.3221 224.29 47.3199 224.339C47.3122 224.517 47.3053 224.694 47.3004 224.872C47.296 225.03 47.2933 225.188 47.291 225.347C47.2901 225.424 47.2882 225.502 47.2877 225.579C47.2666 228.351 47.5884 231.145 48.2638 233.896C48.2847 233.981 48.3126 234.064 48.3443 234.146C50.7847 243.763 57.365 252.48 67.1269 257.522C81.4898 264.939 98.354 262.136 108.741 251.735C108.771 251.708 108.801 251.681 108.83 251.652C108.892 251.589 108.951 251.523 109.012 251.46C109.169 251.299 109.323 251.136 109.476 250.972C109.582 250.859 109.688 250.746 109.792 250.632C109.995 250.408 110.196 250.181 110.393 249.951C110.472 249.859 110.55 249.767 110.627 249.674C110.813 249.453 110.997 249.229 111.178 249.001C111.223 248.944 111.27 248.888 111.315 248.83C111.538 248.546 111.756 248.256 111.97 247.963C112.021 247.894 112.07 247.824 112.12 247.755C112.298 247.507 112.473 247.257 112.644 247.003C112.688 246.939 112.732 246.875 112.775 246.81C112.98 246.504 113.179 246.194 113.374 245.879C113.408 245.825 113.441 245.769 113.474 245.713C113.635 245.45 113.792 245.183 113.946 244.913C113.995 244.828 114.044 244.743 114.092 244.657C114.272 244.335 114.449 244.011 114.62 243.681C114.741 243.446 114.859 243.209 114.974 242.971ZM51.4918 227.28C51.4879 227.191 51.4848 227.101 51.4816 227.012C51.4735 226.788 51.4673 226.563 51.4643 226.338C51.4612 226.072 51.4604 225.807 51.4647 225.541C51.4658 225.462 51.4675 225.383 51.4693 225.304C51.5566 221.613 52.3353 217.975 53.7847 214.586C53.7923 214.569 53.7999 214.552 53.8075 214.534L67.0998 221.399C67.1231 221.414 67.147 221.429 67.171 221.444C67.8289 221.843 68.081 222.665 67.7454 223.315C67.4098 223.965 66.5933 224.236 65.8867 223.931C65.8609 223.919 65.8349 223.909 65.8089 223.899L62.8316 222.361C60.0407 220.92 56.6548 221.906 55.2841 224.561C53.9134 227.215 55.0694 230.547 57.8604 231.988L64.2366 235.281C64.9613 235.655 65.2615 236.52 64.9056 237.21C64.5496 237.899 63.6704 238.155 62.9455 237.781L52.1262 232.194C51.7805 230.575 51.5669 228.931 51.4918 227.28ZM110.472 242.494C110.429 242.571 110.385 242.647 110.341 242.723C110.245 242.893 110.148 243.063 110.048 243.232C109.996 243.319 109.943 243.406 109.89 243.493C109.794 243.65 109.698 243.806 109.6 243.96C109.544 244.048 109.488 244.135 109.432 244.222C109.331 244.377 109.229 244.531 109.126 244.683C109.07 244.766 109.014 244.848 108.958 244.93C108.842 245.096 108.724 245.261 108.606 245.425C108.559 245.49 108.513 245.555 108.466 245.62C108.306 245.836 108.143 246.05 107.978 246.262C107.902 246.359 107.824 246.454 107.747 246.55C107.655 246.665 107.563 246.78 107.469 246.893C107.369 247.013 107.269 247.131 107.168 247.249C107.097 247.332 107.026 247.415 106.954 247.496C106.896 247.562 106.837 247.627 106.779 247.692L101.965 245.206C100.931 244.672 99.6798 245.037 99.1718 246.02C98.6637 247.004 99.0907 248.235 100.125 248.769L103.735 250.634C94.5029 258.325 80.7762 260.057 68.9665 253.958C61.8148 250.265 56.599 244.335 53.8015 237.572L61.1056 241.344C63.8965 242.785 67.2824 241.799 68.6531 239.145C70.0238 236.491 68.8682 233.159 66.0771 231.717L59.7008 228.424C58.9762 228.05 58.6759 227.185 59.0319 226.496C59.3878 225.806 60.2671 225.55 60.9919 225.924L64.1801 227.571C64.3163 227.641 64.4561 227.696 64.5977 227.735C67.2566 228.73 70.2412 227.674 71.4932 225.25C72.7442 222.828 71.8793 219.786 69.533 218.193C69.4173 218.099 69.2896 218.015 69.1514 217.944L55.648 210.97C63.7983 197.561 81.7028 192.83 96.5697 200.507C104.745 204.729 110.391 211.873 112.786 219.843L97.454 211.926C94.0595 210.173 89.9417 211.373 88.2747 214.601C86.6078 217.829 88.0132 221.881 91.4076 223.634L99.9729 228.057C101.301 228.743 101.851 230.329 101.199 231.591C100.546 232.855 98.935 233.324 97.6071 232.638L93.3245 230.427C93.1799 230.352 93.0309 230.295 92.88 230.255C89.6376 229.023 85.9876 230.305 84.4597 233.264C82.9327 236.221 83.9976 239.937 86.875 241.868C86.9965 241.969 87.131 242.059 87.278 242.135L88.8838 242.964C89.9184 243.499 91.1694 243.134 91.6774 242.15C92.1855 241.166 91.7585 239.935 90.724 239.401L89.3607 238.697C89.3277 238.674 89.294 238.653 89.2598 238.632C88.0537 237.899 87.5912 236.392 88.2069 235.199C88.8225 234.007 90.3195 233.511 91.6151 234.071C91.6526 234.087 91.6901 234.102 91.7278 234.116L95.7669 236.202C99.1614 237.954 103.279 236.754 104.946 233.526C106.613 230.299 105.208 226.246 101.813 224.493L93.2479 220.07C91.9196 219.384 91.3698 217.799 92.022 216.536C92.6743 215.273 94.2857 214.803 95.6138 215.489L113.852 224.908C114.277 228.366 114.101 231.894 113.267 235.336C113.266 235.34 113.265 235.345 113.264 235.349C113.21 235.57 113.153 235.791 113.094 236.011C113.075 236.081 113.055 236.152 113.036 236.222C112.949 236.537 112.855 236.851 112.757 237.164C112.714 237.3 112.672 237.437 112.627 237.574C112.579 237.719 112.528 237.864 112.478 238.009C112.418 238.18 112.357 238.349 112.294 238.519C112.25 238.637 112.207 238.756 112.162 238.874C112.054 239.152 111.943 239.429 111.827 239.705C111.793 239.785 111.757 239.865 111.723 239.945C111.626 240.17 111.525 240.394 111.422 240.618C111.382 240.704 111.342 240.79 111.301 240.876C111.163 241.168 111.021 241.458 110.873 241.746C110.743 241.998 110.609 242.247 110.472 242.494Z" fill="#3CE600"/>
<path d="M97.4407 244.686C97.4767 244.56 97.4971 244.429 97.5055 244.297C97.5147 244.165 97.51 244.031 97.4921 243.9C97.4755 243.767 97.4438 243.636 97.3998 243.509C97.3559 243.383 97.2989 243.259 97.2291 243.141C97.161 243.025 97.0808 242.913 96.9895 242.81C96.9 242.707 96.7996 242.613 96.6917 242.528C96.474 242.356 96.2249 242.228 95.961 242.15C95.8291 242.112 95.6936 242.084 95.5563 242.07C95.4207 242.056 95.2837 242.056 95.1495 242.067C95.0131 242.078 94.8789 242.104 94.7504 242.141C94.6219 242.179 94.4963 242.229 94.3763 242.291C94.2591 242.353 94.1495 242.427 94.0467 242.511C93.9446 242.594 93.8492 242.687 93.7682 242.789C93.6847 242.89 93.611 243.001 93.5512 243.117C93.3084 243.587 93.2722 244.149 93.4497 244.66C93.4935 244.787 93.5505 244.911 93.6197 245.03C93.6878 245.146 93.7676 245.258 93.8572 245.36C93.9485 245.464 94.0491 245.559 94.1572 245.644C94.2653 245.729 94.3833 245.803 94.505 245.866C94.6266 245.929 94.7561 245.982 94.8878 246.021C95.0196 246.06 95.1551 246.087 95.2902 246.1C95.4275 246.115 95.5648 246.116 95.6991 246.104C95.8362 246.091 95.9704 246.066 96.0989 246.028C96.6184 245.877 97.0557 245.522 97.2985 245.052C97.3584 244.937 97.4063 244.812 97.4407 244.686Z" fill="#3CE600"/>
<path d="M68.3044 269.01C68.7177 267.982 68.1814 266.788 67.1042 266.344C64.6314 265.324 62.2016 264.069 59.9461 262.648C58.958 262.026 57.6771 262.28 57.0781 263.212C56.4793 264.144 56.7923 265.403 57.7773 266.023C59.0123 266.801 60.3004 267.538 61.6062 268.212C62.9099 268.885 64.2561 269.509 65.6076 270.067C66.6834 270.511 67.8911 270.038 68.3044 269.01Z" fill="#3CE600"/>
<path d="M107.759 188.442C105.291 186.887 102.633 185.514 99.929 184.398C98.8529 183.954 97.6451 184.428 97.2319 185.456C96.8416 186.427 97.2993 187.545 98.2583 188.041C98.3145 188.07 98.3727 188.096 98.4323 188.121C100.904 189.141 103.335 190.396 105.59 191.818C106.576 192.436 107.859 192.185 108.458 191.253C109.057 190.321 108.744 189.063 107.759 188.442Z" fill="#3CE600"/>
<path d="M92.062 271.3C91.8817 270.188 90.8127 269.391 89.6741 269.52C88.3692 269.669 87.0346 269.761 85.7073 269.795C84.3823 269.829 83.04 269.805 81.7174 269.723C80.5648 269.651 79.6094 270.5 79.5831 271.617C79.564 272.431 80.0437 273.164 80.751 273.529C81.0145 273.665 81.3099 273.75 81.6225 273.77C83.0698 273.859 84.5381 273.886 85.9871 273.849C87.4384 273.812 88.8984 273.711 90.3263 273.548C91.4652 273.419 92.2423 272.412 92.062 271.3Z" fill="#3CE600"/>
<path d="M85.9529 182.849C85.9788 181.731 85.066 180.767 83.9135 180.696C82.4685 180.607 80.9999 180.58 79.5489 180.617C78.0983 180.654 76.6385 180.755 75.2098 180.917C74.0712 181.047 73.294 182.054 73.4743 183.166C73.5846 183.846 74.0284 184.41 74.6174 184.714C74.99 184.906 75.4209 184.995 75.8622 184.945C77.1677 184.796 78.5022 184.704 79.8286 184.67C81.1556 184.637 82.4978 184.661 83.8186 184.743C84.9712 184.814 85.9267 183.966 85.9529 182.849Z" fill="#3CE600"/>
<path d="M113.329 261.782C112.603 260.884 111.289 260.697 110.394 261.366C109.367 262.132 108.286 262.862 107.181 263.537C106.077 264.212 104.93 264.843 103.77 265.413C102.759 265.91 102.388 267.126 102.942 268.13C103.156 268.518 103.478 268.818 103.851 269.011C104.44 269.315 105.156 269.351 105.775 269.046C107.044 268.423 108.299 267.733 109.507 266.995C110.715 266.257 111.897 265.458 113.021 264.619C113.917 263.951 114.055 262.681 113.329 261.782Z" fill="#3CE600"/>
<path d="M62.5945 186.336C62.0407 185.332 60.7722 184.922 59.7613 185.419C58.4927 186.042 57.2373 186.733 56.0297 187.47C54.8232 188.207 53.6407 189.007 52.5155 189.846C51.6195 190.514 51.4811 191.784 52.2067 192.683C52.4036 192.927 52.6439 193.118 52.9074 193.254C53.6147 193.62 54.4896 193.587 55.1425 193.1C56.1707 192.333 57.2516 191.602 58.3549 190.928C59.459 190.253 60.6063 189.622 61.7654 189.053C62.7769 188.556 63.148 187.34 62.5945 186.336Z" fill="#3CE600"/>
<path d="M127.608 245.673C128.022 244.645 127.481 243.452 126.408 243.007C125.332 242.564 124.125 243.037 123.711 244.065C123.238 245.243 122.701 246.416 122.114 247.551C121.528 248.687 120.883 249.804 120.196 250.872C119.597 251.804 119.91 253.062 120.895 253.683C120.95 253.717 121.005 253.749 121.062 253.778C122.02 254.273 123.197 253.999 123.763 253.119C124.514 251.95 125.22 250.728 125.862 249.486C126.503 248.245 127.09 246.962 127.608 245.673Z" fill="#3CE600"/>
<path d="M41.8253 210.4C42.2992 209.221 42.8366 208.048 43.4222 206.914C44.0079 205.78 44.6532 204.663 45.3403 203.594C45.9391 202.662 45.6262 201.403 44.6411 200.782C43.6555 200.162 42.3721 200.415 41.7731 201.347C41.0216 202.516 40.3156 203.738 39.675 204.979C39.0343 206.219 38.4465 207.503 37.928 208.793C37.5379 209.764 37.9955 210.882 38.9543 211.377C39.0107 211.407 39.0688 211.433 39.1285 211.458C40.2047 211.902 41.4121 211.428 41.8253 210.4Z" fill="#3CE600"/>
<path d="M130.766 230.256C130.799 228.854 130.766 227.427 130.669 226.016C130.572 224.606 130.407 223.182 130.181 221.785C130.001 220.673 128.932 219.876 127.793 220.006C126.655 220.135 125.877 221.142 126.058 222.254C126.265 223.531 126.415 224.832 126.504 226.121C126.593 227.412 126.623 228.716 126.593 229.997C126.574 230.811 127.053 231.544 127.761 231.909C128.024 232.045 128.32 232.131 128.632 232.15C129.784 232.221 130.74 231.373 130.766 230.256Z" fill="#3CE600"/>
<path d="M39.4787 232.211C39.2717 230.936 39.1216 229.635 39.0325 228.344C38.9435 227.053 38.9136 225.749 38.9435 224.468C38.9699 223.351 38.0565 222.387 36.9044 222.316C35.7517 222.244 34.7962 223.093 34.7699 224.21C34.7369 225.612 34.7698 227.038 34.8672 228.45C34.9646 229.861 35.1287 231.285 35.3551 232.681C35.4653 233.362 35.9092 233.924 36.4982 234.229C36.8708 234.421 37.302 234.51 37.7432 234.46C38.8823 234.33 39.6593 233.323 39.4787 232.211Z" fill="#3CE600"/>
<path d="M124.909 206.583C124.214 205.324 123.452 204.075 122.642 202.871C121.832 201.667 120.96 200.484 120.05 199.357C119.324 198.459 118.01 198.272 117.114 198.941C116.218 199.609 116.08 200.879 116.805 201.778C117.637 202.808 118.434 203.888 119.175 204.99C119.915 206.091 120.612 207.232 121.246 208.382C121.461 208.771 121.783 209.071 122.156 209.263C122.745 209.568 123.46 209.603 124.08 209.299C125.091 208.802 125.462 207.586 124.909 206.583Z" fill="#3CE600"/>
<path d="M48.7311 252.688C47.8997 251.658 47.1027 250.578 46.3621 249.476C45.622 248.375 44.9246 247.234 44.2898 246.083C43.7364 245.08 42.4677 244.669 41.4564 245.167C40.4452 245.664 40.0742 246.88 40.6279 247.883C41.3226 249.143 42.0852 250.391 42.8946 251.595C43.7047 252.8 44.5766 253.982 45.4865 255.109C45.6834 255.353 45.9236 255.544 46.187 255.68C46.8945 256.045 47.7696 256.012 48.4221 255.525C49.3181 254.856 49.4563 253.586 48.7311 252.688Z" fill="#3CE600"/>
</g>
<defs>
<clipPath id="clip0_12_2">
<rect width="97" height="92.2419" fill="white" transform="translate(60.8372 164) rotate(27.3126)"/>
</clipPath>
</defs>
</svg>
