<svg width="700" height="800" viewBox="0 0 700 800" fill="none" xmlns="http://www.w3.org/2000/svg">
<g clip-path="url(#clip0_12_2)">
<path d="M253.628 652.957C254.311 653.124 255.045 653.111 255.747 652.88C257.614 652.264 258.537 650.336 257.809 648.568C256.096 644.426 254.176 640.112 252.098 635.744C251.275 634.016 249.128 633.178 247.296 633.89C245.468 634.594 244.654 636.569 245.478 638.302C247.507 642.559 249.379 646.764 251.045 650.8C251.501 651.9 252.492 652.679 253.628 652.957Z" fill="#8F00FF"/>
<path d="M122.843 519.429C123.303 519.807 123.832 520.061 124.38 520.195C125.661 520.509 127.054 520.17 127.959 519.2C128.567 518.549 129.23 518.031 129.984 517.613C132.004 516.492 134.654 516.196 137.856 516.738C139.84 517.071 141.682 515.85 141.968 514.013C142.255 512.169 140.88 510.41 138.892 510.075C133.929 509.243 129.628 509.808 126.109 511.76C124.735 512.521 123.491 513.493 122.41 514.649C121.116 516.033 121.31 518.174 122.843 519.429Z" fill="#8F00FF"/>
<path d="M262.286 679.059C262.791 679.183 263.329 679.209 263.868 679.118C265.826 678.782 267.064 677.019 266.631 675.178C265.639 670.945 264.329 666.408 262.742 661.693C262.133 659.894 260.094 658.836 258.185 659.336C256.273 659.836 255.215 661.704 255.821 663.505C257.342 668.024 258.594 672.361 259.541 676.393C259.854 677.728 260.958 678.734 262.286 679.059Z" fill="#8F00FF"/>
<path d="M189.424 662.685C189.122 662.328 188.821 661.952 188.52 661.592C191.182 660.395 193.897 659.12 196.64 657.804C197.351 658.677 198.066 659.574 198.772 660.423C199.306 661.068 200.031 661.494 200.807 661.684C201.844 661.938 202.975 661.771 203.873 661.134C205.44 660.025 205.698 657.904 204.448 656.401C203.978 655.835 203.5 655.231 203.027 654.654C207.942 652.185 212.942 649.587 218.093 646.735C286.99 608.593 312.791 570.823 302.089 554.649C293.156 541.143 257.823 541.298 206.305 563.913C203.474 560.433 200.61 557.036 197.773 553.832C196.477 552.369 194.182 552.115 192.656 553.269C191.128 554.428 190.942 556.557 192.24 558.024C194.733 560.843 197.249 563.825 199.747 566.869C197.075 568.108 194.362 569.408 191.61 570.766C188.897 567.362 186.178 564.056 183.511 560.958C182.236 559.484 179.947 559.197 178.4 560.333C176.855 561.471 176.637 563.596 177.915 565.081C180.335 567.891 182.802 570.89 185.268 573.967C181.554 575.88 177.785 577.883 173.943 580.01C168.452 583.051 163.264 586.087 158.318 589.112C158.432 588.442 158.394 587.739 158.041 587.07C155.802 582.836 153.728 578.701 151.881 574.773C151.065 573.039 148.923 572.196 147.088 572.898C145.257 573.594 144.433 575.566 145.25 577.301C147.142 581.324 149.262 585.556 151.552 589.884C152.059 590.845 152.974 591.499 153.996 591.75C154.014 591.754 154.034 591.75 154.053 591.754C100.149 625.697 80.3488 657.585 89.9467 672.092C92.3578 675.739 96.6895 678.389 102.746 679.873C118.565 683.75 146.155 679.63 181.899 664.478C182.529 665.235 183.156 666.012 183.785 666.756C184.318 667.384 185.033 667.804 185.8 667.992C186.848 668.249 187.991 668.075 188.892 667.425C190.448 666.302 190.687 664.18 189.424 662.685ZM183.876 655.922C182.782 654.558 181.688 653.192 180.61 651.805C179.411 650.271 177.143 649.874 175.529 650.939C173.921 651.997 173.588 654.107 174.782 655.646C175.595 656.692 176.424 657.717 177.247 658.752C135.263 676.058 102.83 678.871 96.0892 668.692C89.3656 658.531 107.082 633.599 143.227 607.631C143.297 607.9 143.336 608.171 143.479 608.428C144.786 610.766 146.146 613.116 147.53 615.464C123.633 632 102.339 651.064 109.201 661.436C110.531 663.445 112.656 664.813 115.604 665.535C121.904 667.079 131.954 665.677 145.97 661.328C164.131 655.692 186.567 645.705 209.143 633.205C231.721 620.708 251.798 607.159 265.678 595.055C281.398 581.345 287.009 571.617 282.836 565.307C272.463 549.616 212.924 576.91 182.894 593.535C178.073 596.204 172.63 599.366 166.937 602.851C166.203 601.615 165.459 600.373 164.752 599.152C163.786 597.486 161.58 596.813 159.82 597.652C158.062 598.495 157.424 600.529 158.39 602.199C159.225 603.641 160.099 605.104 160.971 606.567C158.444 608.17 155.895 609.824 153.351 611.516C152.169 609.499 151.013 607.48 149.89 605.474C149.529 604.83 148.954 604.384 148.317 604.058C157.182 597.956 167.035 591.832 177.816 585.862C205.03 570.796 232.636 559.776 255.552 554.827C269.184 551.886 280.338 551.363 287.662 553.158C291.601 554.123 294.434 555.759 295.948 558.047C300.277 564.592 294.44 577.387 280.332 592.277C264.91 608.553 241.433 625.815 214.219 640.88C208.922 643.813 203.694 646.541 198.555 649.081C197.608 647.878 196.661 646.684 195.718 645.454C194.528 643.899 192.256 643.501 190.643 644.556C189.026 645.606 188.677 647.709 189.863 649.255C190.622 650.245 191.384 651.201 192.145 652.174C189.355 653.486 186.601 654.728 183.876 655.922ZM156.927 617.541C159.372 615.901 161.929 614.235 164.597 612.542C164.959 613.127 165.303 613.703 165.67 614.291C166.2 615.139 167.052 615.711 167.989 615.94C168.864 616.155 169.813 616.072 170.646 615.64C172.37 614.745 172.936 612.688 171.913 611.046C171.448 610.302 171.01 609.57 170.554 608.83C175.616 605.742 180.978 602.596 186.768 599.39C233.616 573.457 266.277 565.538 274.752 567.615C275.72 567.853 276.374 568.222 276.697 568.708C277.548 569.998 276.322 576.34 260.619 590.032C247.088 601.83 227.434 615.083 205.271 627.353C199.464 630.568 193.677 633.599 187.971 636.441C188.043 635.691 187.897 634.91 187.405 634.22C184.754 630.508 182.104 626.678 179.47 622.737C178.392 621.132 176.147 620.585 174.458 621.532C172.767 622.479 172.269 624.556 173.348 626.168C176.022 630.167 178.715 634.06 181.407 637.83C181.771 638.338 182.273 638.685 182.813 638.953C179.367 640.61 175.949 642.214 172.601 643.705C172.999 642.722 172.951 641.586 172.259 640.618C169.581 636.88 166.918 633.019 164.35 629.146C163.275 627.528 161.032 626.978 159.34 627.925C157.646 628.864 157.142 630.936 158.211 632.553C160.828 636.496 163.537 640.428 166.266 644.237C166.751 644.914 167.455 645.354 168.218 645.595C159.405 649.374 151.026 652.548 143.453 654.897C122.905 661.273 116.194 659.33 115.343 658.038C113.042 654.56 124.512 640.178 151.325 621.374C151.797 621.795 152.332 622.139 152.944 622.289C153.808 622.501 154.747 622.422 155.571 622.004C157.265 621.142 157.841 619.168 156.927 617.541Z" fill="#8F00FF"/>
<path d="M265.012 685.844C263.013 685.903 261.502 687.467 261.638 689.336C261.961 693.733 261.745 697.508 260.997 700.559C260.911 700.911 260.817 701.257 260.715 701.594C260.177 703.376 261.307 705.279 263.239 705.848C263.296 705.865 263.356 705.88 263.414 705.894C265.29 706.354 267.188 705.376 267.71 703.648C267.842 703.209 267.966 702.756 268.078 702.295C268.982 698.608 269.252 694.176 268.882 689.12C268.745 687.25 267.009 685.798 265.012 685.844Z" fill="#8F00FF"/>
<path d="M208.569 683.196C205.336 680.094 202.025 676.725 198.726 673.179C197.385 671.74 195.094 671.547 193.598 672.743C192.105 673.938 191.979 676.072 193.317 677.511C196.709 681.153 200.12 684.624 203.451 687.821C203.952 688.303 204.563 688.622 205.204 688.779C206.383 689.068 207.67 688.808 208.586 687.979C209.999 686.703 209.989 684.562 208.569 683.196Z" fill="#8F00FF"/>
<path d="M254.084 708.908C251.99 709.466 249.408 709.374 246.402 708.638C245.098 708.213 243.733 707.885 242.295 707.326C240.448 706.613 238.325 707.411 237.613 709.129C236.901 710.852 237.844 712.836 239.718 713.564C241.454 714.237 243.145 714.776 244.738 715.166C249.005 716.242 252.943 716.32 256.307 715.427C258.216 714.919 259.266 713.05 258.652 711.25C258.036 709.453 255.988 708.407 254.084 708.908Z" fill="#8F00FF"/>
<path d="M230.237 700.907C226.667 698.562 222.896 695.754 219.03 692.558C217.502 691.29 215.209 691.392 213.911 692.767C212.613 694.146 212.798 696.288 214.325 697.55C218.404 700.924 222.402 703.899 226.205 706.395C226.586 706.644 226.998 706.819 227.42 706.922C228.843 707.271 230.381 706.802 231.24 705.633C232.354 704.118 231.906 702.001 230.237 700.907Z" fill="#8F00FF"/>
<path d="M120.73 546.196C121.159 546.301 121.614 546.334 122.076 546.285C124.057 546.073 125.422 544.396 125.12 542.536C124.336 537.71 124.072 533.412 124.335 529.76C124.466 527.899 122.946 526.257 120.956 526.043C118.955 525.851 117.225 527.202 117.091 529.063C116.793 533.2 117.079 537.995 117.94 543.31C118.173 544.735 119.314 545.849 120.73 546.196Z" fill="#8F00FF"/>
<path d="M123.637 552.954C121.7 553.377 120.557 555.193 121.08 557.015C122.297 561.246 123.787 565.723 125.513 570.322C125.943 571.474 126.961 572.296 128.136 572.584C128.781 572.742 129.477 572.74 130.146 572.541C132.035 571.982 133.026 570.084 132.357 568.301C130.693 563.862 129.257 559.551 128.089 555.489C127.564 553.666 125.575 552.533 123.637 552.954Z" fill="#8F00FF"/>
<path d="M150.165 521.455C153.79 523.438 157.695 525.999 161.772 529.065C162.203 529.39 162.685 529.61 163.184 529.733C164.521 530.06 165.973 529.671 166.862 528.626C168.088 527.185 167.791 525.053 166.204 523.858C161.834 520.572 157.617 517.808 153.667 515.648C151.912 514.69 149.703 515.208 148.737 516.81C147.769 518.415 148.409 520.494 150.165 521.455Z" fill="#8F00FF"/>
<path d="M172.567 538.01C175.88 540.99 179.286 544.263 182.692 547.739C183.207 548.265 183.847 548.612 184.527 548.779C185.666 549.058 186.911 548.825 187.824 548.053C189.283 546.822 189.349 544.68 187.972 543.276C184.458 539.688 180.937 536.305 177.51 533.22C176.039 531.901 173.746 531.905 172.38 533.223C171.014 534.545 171.099 536.689 172.567 538.01Z" fill="#8F00FF"/>
<path d="M132.78 578.937C130.932 579.599 130.063 581.55 130.839 583.302C132.67 587.422 134.698 591.692 136.864 595.993C137.362 596.982 138.294 597.664 139.34 597.921C140.11 598.109 140.939 598.069 141.705 597.755C143.514 597.013 144.28 595.019 143.416 593.304C141.298 589.1 139.32 584.927 137.533 580.905C136.755 579.161 134.628 578.276 132.78 578.937Z" fill="#8F00FF"/>
<path d="M248.535 691.606C247.69 689.882 245.536 689.069 243.717 689.788C242.674 690.2 240.304 690.067 234.051 685.74C232.411 684.603 230.147 684.891 228.993 686.376C227.835 687.864 228.224 689.988 229.863 691.122C233.787 693.841 237.146 695.518 240.128 696.249C242.626 696.861 244.859 696.788 246.76 696.035C248.582 695.312 249.375 693.328 248.535 691.606Z" fill="#8F00FF"/>
<path d="M244.676 680.992C244.902 682.423 246.046 683.543 247.466 683.891C247.891 683.996 248.342 684.031 248.8 683.984C250.782 683.779 252.151 682.106 251.86 680.247C251.243 676.346 250.002 671.703 248.168 666.451C247.542 664.655 245.489 663.624 243.585 664.139C241.68 664.658 240.644 666.534 241.271 668.331C242.976 673.212 244.12 677.474 244.676 680.992Z" fill="#8F00FF"/>
<path d="M163.249 540.199C161.753 538.899 159.456 538.953 158.123 540.3C156.79 541.65 156.924 543.793 158.422 545.085C161.566 547.799 164.959 551.043 168.501 554.715C169.019 555.252 169.668 555.607 170.356 555.776C171.487 556.053 172.719 555.827 173.633 555.069C175.102 553.847 175.187 551.71 173.822 550.296C170.122 546.456 166.565 543.061 163.249 540.199Z" fill="#8F00FF"/>
<path d="M213.652 666.962C212.325 665.522 210.028 665.311 208.527 666.492C207.023 667.678 206.881 669.811 208.208 671.257C211.73 675.094 215.154 678.578 218.381 681.615C218.877 682.082 219.478 682.395 220.107 682.55C221.299 682.841 222.598 682.57 223.514 681.728C224.912 680.435 224.882 678.294 223.444 676.942C220.349 674.025 217.052 670.671 213.652 666.962Z" fill="#8F00FF"/>
<path d="M238.791 657.832C239.501 658.007 240.268 657.985 240.992 657.728C242.842 657.067 243.712 655.116 242.938 653.368C241.148 649.326 239.109 645.052 236.88 640.666C236.006 638.951 233.84 638.173 232.032 638.926C230.226 639.676 229.467 641.671 230.337 643.384C232.513 647.66 234.499 651.822 236.24 655.751C236.711 656.818 237.684 657.561 238.791 657.832Z" fill="#8F00FF"/>
<path d="M142.264 549.597C141.797 547.766 139.839 546.577 137.886 546.949C135.935 547.317 134.735 549.103 135.202 550.935C136.219 554.92 137.719 559.444 139.655 564.386C140.097 565.513 141.103 566.316 142.261 566.6C142.923 566.762 143.636 566.754 144.318 566.542C146.198 565.96 147.159 564.044 146.463 562.268C144.627 557.58 143.214 553.318 142.264 549.597Z" fill="#8F00FF"/>
<path d="M136.772 540.08C138.728 540.559 140.68 539.449 141.123 537.641C141.341 536.749 141.676 536.14 142.06 535.926C142.827 535.504 144.981 535.998 147.468 537.265C149.264 538.169 151.441 537.582 152.35 535.952C153.26 534.316 152.55 532.255 150.763 531.346C145.588 528.719 141.377 528.311 138.189 530.073C136.102 531.228 134.707 533.193 134.025 535.972C133.582 537.782 134.817 539.601 136.772 540.08Z" fill="#8F00FF"/>
<path d="M191.373 624.017C197.231 625.452 203.075 622.217 204.401 616.805C205.728 611.392 202.042 605.821 196.184 604.386C190.327 602.95 184.483 606.186 183.156 611.598C181.83 617.011 185.515 622.581 191.373 624.017ZM194.581 610.93C196.533 611.408 197.762 613.264 197.319 615.069C196.877 616.875 194.929 617.951 192.977 617.473C191.025 616.995 189.796 615.139 190.238 613.334C190.681 611.529 192.628 610.451 194.581 610.93Z" fill="#8F00FF"/>
</g>
<defs>
<clipPath id="clip0_12_2">
<rect width="190.696" height="176.211" fill="white" transform="translate(122.942 505) rotate(13.7697)"/>
</clipPath>
</defs>
</svg>
