<?xml version="1.0" standalone="no"?><svg xmlns="http://www.w3.org/2000/svg" viewBox="0 0 1440 320"><path fill="#0099ff" fill-opacity="1" d="M0,224L0,160L36.9,160L36.9,32L73.8,32L73.8,64L110.8,64L110.8,160L147.7,160L147.7,224L184.6,224L184.6,96L221.5,96L221.5,64L258.5,64L258.5,160L295.4,160L295.4,128L332.3,128L332.3,64L369.2,64L369.2,256L406.2,256L406.2,288L443.1,288L443.1,64L480,64L480,224L516.9,224L516.9,0L553.8,0L553.8,32L590.8,32L590.8,288L627.7,288L627.7,320L664.6,320L664.6,128L701.5,128L701.5,224L738.5,224L738.5,288L775.4,288L775.4,160L812.3,160L812.3,288L849.2,288L849.2,224L886.2,224L886.2,96L923.1,96L923.1,256L960,256L960,224L996.9,224L996.9,192L1033.8,192L1033.8,128L1070.8,128L1070.8,128L1107.7,128L1107.7,256L1144.6,256L1144.6,160L1181.5,160L1181.5,288L1218.5,288L1218.5,160L1255.4,160L1255.4,96L1292.3,96L1292.3,128L1329.2,128L1329.2,64L1366.2,64L1366.2,224L1403.1,224L1403.1,32L1440,32L1440,320L1403.1,320L1403.1,320L1366.2,320L1366.2,320L1329.2,320L1329.2,320L1292.3,320L1292.3,320L1255.4,320L1255.4,320L1218.5,320L1218.5,320L1181.5,320L1181.5,320L1144.6,320L1144.6,320L1107.7,320L1107.7,320L1070.8,320L1070.8,320L1033.8,320L1033.8,320L996.9,320L996.9,320L960,320L960,320L923.1,320L923.1,320L886.2,320L886.2,320L849.2,320L849.2,320L812.3,320L812.3,320L775.4,320L775.4,320L738.5,320L738.5,320L701.5,320L701.5,320L664.6,320L664.6,320L627.7,320L627.7,320L590.8,320L590.8,320L553.8,320L553.8,320L516.9,320L516.9,320L480,320L480,320L443.1,320L443.1,320L406.2,320L406.2,320L369.2,320L369.2,320L332.3,320L332.3,320L295.4,320L295.4,320L258.5,320L258.5,320L221.5,320L221.5,320L184.6,320L184.6,320L147.7,320L147.7,320L110.8,320L110.8,320L73.8,320L73.8,320L36.9,320L36.9,320L0,320L0,320Z"></path></svg>